<svg width="105" height="145" viewBox="0 0 105 145" fill="none" xmlns="http://www.w3.org/2000/svg">
<path d="M48.2313 94.8799H23.0793L19.0473 106.784H1.86327L26.2473 39.3919H45.2553L69.6393 106.784H52.2633L48.2313 94.8799ZM44.0073 82.2079L35.6553 57.5359L27.3993 82.2079H44.0073ZM90.1165 47.6479C87.2365 47.6479 84.8685 46.8159 83.0125 45.1519C81.2205 43.4239 80.3245 41.3119 80.3245 38.8159C80.3245 36.2559 81.2205 34.1439 83.0125 32.4799C84.8685 30.7519 87.2365 29.8879 90.1165 29.8879C92.9325 29.8879 95.2365 30.7519 97.0285 32.4799C98.8845 34.1439 99.8125 36.2559 99.8125 38.8159C99.8125 41.3119 98.8845 43.4239 97.0285 45.1519C95.2365 46.8159 92.9325 47.6479 90.1165 47.6479ZM98.2765 53.2159V106.784H81.8605V53.2159H98.2765Z" fill="white"/>
<path d="M48.2313 94.8799H23.0793L19.0473 106.784H1.86327L26.2473 39.3919H45.2553L69.6393 106.784H52.2633L48.2313 94.8799ZM44.0073 82.2079L35.6553 57.5359L27.3993 82.2079H44.0073ZM90.1165 47.6479C87.2365 47.6479 84.8685 46.8159 83.0125 45.1519C81.2205 43.4239 80.3245 41.3119 80.3245 38.8159C80.3245 36.2559 81.2205 34.1439 83.0125 32.4799C84.8685 30.7519 87.2365 29.8879 90.1165 29.8879C92.9325 29.8879 95.2365 30.7519 97.0285 32.4799C98.8845 34.1439 99.8125 36.2559 99.8125 38.8159C99.8125 41.3119 98.8845 43.4239 97.0285 45.1519C95.2365 46.8159 92.9325 47.6479 90.1165 47.6479ZM98.2765 53.2159V106.784H81.8605V53.2159H98.2765Z" fill="url(#paint0_linear_8_3)" fill-opacity="0.6"/>
<path d="M48.2313 94.8799H23.0793L19.0473 106.784H1.86327L26.2473 39.3919H45.2553L69.6393 106.784H52.2633L48.2313 94.8799ZM44.0073 82.2079L35.6553 57.5359L27.3993 82.2079H44.0073ZM90.1165 47.6479C87.2365 47.6479 84.8685 46.8159 83.0125 45.1519C81.2205 43.4239 80.3245 41.3119 80.3245 38.8159C80.3245 36.2559 81.2205 34.1439 83.0125 32.4799C84.8685 30.7519 87.2365 29.8879 90.1165 29.8879C92.9325 29.8879 95.2365 30.7519 97.0285 32.4799C98.8845 34.1439 99.8125 36.2559 99.8125 38.8159C99.8125 41.3119 98.8845 43.4239 97.0285 45.1519C95.2365 46.8159 92.9325 47.6479 90.1165 47.6479ZM98.2765 53.2159V106.784H81.8605V53.2159H98.2765Z" fill="url(#paint1_linear_8_3)"/>
<circle cx="89.8758" cy="39.1267" r="10.5" fill="#B206B0"/>
<circle cx="89.8758" cy="39.1267" r="10.5" fill="url(#paint2_linear_8_3)"/>
<defs>
<linearGradient id="paint0_linear_8_3" x1="52.3273" y1="139.929" x2="386.709" y2="-103.89" gradientUnits="userSpaceOnUse">
<stop offset="0.0130172" stop-color="#E10714"/>
<stop offset="0.291176" stop-opacity="0"/>
</linearGradient>
<linearGradient id="paint1_linear_8_3" x1="-1.35731" y1="119.958" x2="228.146" y2="129.651" gradientUnits="userSpaceOnUse">
<stop stop-color="#FF00E6"/>
<stop offset="0.9998" stop-color="#000AFF"/>
<stop offset="0.9999" stop-color="#353BD3"/>
<stop offset="1" stop-color="#000AFF"/>
</linearGradient>
<linearGradient id="paint2_linear_8_3" x1="128.539" y1="-65.3655" x2="89.8758" y2="-72.3729" gradientUnits="userSpaceOnUse">
<stop stop-color="#FA001E"/>
<stop offset="1" stop-color="#F55858" stop-opacity="0"/>
</linearGradient>
</defs>
</svg>
